G04*
G04 #@! TF.GenerationSoftware,Altium Limited,Altium Designer,22.6.1 (34)*
G04*
G04 Layer_Color=32768*
%FSLAX24Y24*%
%MOIN*%
G70*
G04*
G04 #@! TF.SameCoordinates,6E773C18-5622-4DD5-A5AB-6A1A1A176540*
G04*
G04*
G04 #@! TF.FilePolarity,Positive*
G04*
G01*
G75*
%ADD30C,0.0020*%
D30*
X7069Y6843D02*
Y9118D01*
X8285D01*
Y6843D02*
Y9118D01*
X7069Y6843D02*
X8285D01*
X7480Y7980D02*
X7874D01*
X7677Y7783D02*
Y8177D01*
X20374Y11476D02*
Y19626D01*
X2854Y11476D02*
X20374D01*
X2854D02*
Y19626D01*
X20374D01*
X12616Y7524D02*
Y9799D01*
X11400Y7524D02*
X12616D01*
X11400D02*
Y9799D01*
X12616D01*
X11811Y8661D02*
X12205D01*
X12008Y8465D02*
Y8858D01*
X2079Y24693D02*
X3827D01*
Y22945D02*
Y24693D01*
X2079Y22945D02*
X3827D01*
X2079D02*
Y24693D01*
X2756Y23819D02*
X3150D01*
X2953Y23622D02*
Y24016D01*
X6890Y23622D02*
Y24016D01*
X6693Y23819D02*
X7087D01*
X6016Y22945D02*
Y24693D01*
Y22945D02*
X7764D01*
Y24693D01*
X6016D02*
X7764D01*
X8449Y2559D02*
X8843D01*
X8646Y2362D02*
Y2756D01*
X7008Y1951D02*
X10283D01*
X7008D02*
Y3167D01*
X10283D01*
Y1951D02*
Y3167D01*
X12205Y24016D02*
Y24409D01*
X12008Y24213D02*
X12402D01*
X13079Y23339D02*
Y25087D01*
X11331D02*
X13079D01*
X11331Y23339D02*
Y25087D01*
Y23339D02*
X13079D01*
X18882Y9646D02*
X19276D01*
X19079Y9449D02*
Y9843D01*
X17441Y9037D02*
X20717D01*
X17441D02*
Y10254D01*
X20717D01*
Y9037D02*
Y10254D01*
X17126Y24213D02*
Y24606D01*
X16929Y24409D02*
X17323D01*
X16252Y23535D02*
Y25283D01*
Y23535D02*
X18000D01*
Y25283D01*
X16252D02*
X18000D01*
X20063Y3346D02*
X20457D01*
X20260Y3150D02*
Y3543D01*
X18622Y2738D02*
X21898D01*
X18622D02*
Y3955D01*
X21898D01*
Y2738D02*
Y3955D01*
X22441Y24409D02*
Y24803D01*
X22244Y24606D02*
X22638D01*
X23315Y23732D02*
Y25480D01*
X21567D02*
X23315D01*
X21567Y23732D02*
Y25480D01*
Y23732D02*
X23315D01*
X14567Y3150D02*
X14961D01*
X14764Y2953D02*
Y3346D01*
X13126Y3758D02*
X16402D01*
Y2541D02*
Y3758D01*
X13126Y2541D02*
X16402D01*
X13126D02*
Y3758D01*
X1201Y6386D02*
X2949D01*
Y4638D02*
Y6386D01*
X1201Y4638D02*
X2949D01*
X1201D02*
Y6386D01*
X1878Y5512D02*
X2272D01*
X2075Y5315D02*
Y5709D01*
X23425Y4724D02*
Y5118D01*
X23228Y4921D02*
X23622D01*
X24033Y3283D02*
Y6559D01*
X22817Y3283D02*
X24033D01*
X22817D02*
Y6559D01*
X24033D01*
M02*
