G04*
G04 #@! TF.GenerationSoftware,Altium Limited,Altium Designer,22.6.1 (34)*
G04*
G04 Layer_Physical_Order=1*
G04 Layer_Color=255*
%FSLAX24Y24*%
%MOIN*%
G70*
G04*
G04 #@! TF.SameCoordinates,6E773C18-5622-4DD5-A5AB-6A1A1A176540*
G04*
G04*
G04 #@! TF.FilePolarity,Positive*
G04*
G01*
G75*
%ADD22C,0.0630*%
%ADD23R,0.0630X0.0630*%
%ADD24C,0.0600*%
%ADD25C,0.0591*%
%ADD26C,0.0551*%
%ADD27R,0.0630X0.0630*%
%ADD28C,0.0500*%
D22*
X7677Y8480D02*
D03*
X12008Y8161D02*
D03*
X8646Y2559D02*
D03*
X7646D02*
D03*
X19079Y9646D02*
D03*
X18079D02*
D03*
X20260Y3346D02*
D03*
X19260D02*
D03*
X14764Y3150D02*
D03*
X15764D02*
D03*
X23425Y4921D02*
D03*
Y3921D02*
D03*
D23*
X7677Y7480D02*
D03*
X12008Y9161D02*
D03*
X23425Y5921D02*
D03*
D24*
X18764Y18551D02*
D03*
X17764D02*
D03*
X16764D02*
D03*
X15764D02*
D03*
X14764D02*
D03*
X13764D02*
D03*
X12764D02*
D03*
X11764D02*
D03*
X10764D02*
D03*
X9764D02*
D03*
X8764D02*
D03*
X7764D02*
D03*
X6764D02*
D03*
X5764D02*
D03*
X4764D02*
D03*
Y12551D02*
D03*
X5764D02*
D03*
X6764D02*
D03*
X7764D02*
D03*
X8764D02*
D03*
X9764D02*
D03*
X10764D02*
D03*
X11764D02*
D03*
X12764D02*
D03*
X13764D02*
D03*
X14764D02*
D03*
X15764D02*
D03*
X16764D02*
D03*
X17764D02*
D03*
X18764D02*
D03*
D25*
X2453Y23819D02*
D03*
X3453D02*
D03*
X7390D02*
D03*
X6390D02*
D03*
X11705Y24213D02*
D03*
X12705D02*
D03*
X17626Y24409D02*
D03*
X16626D02*
D03*
X21941Y24606D02*
D03*
X22941D02*
D03*
X1575Y5512D02*
D03*
X2575D02*
D03*
D26*
X4984Y20472D02*
D03*
X984D02*
D03*
X6465Y20866D02*
D03*
X10465D02*
D03*
X11811D02*
D03*
X15811D02*
D03*
X21685Y21063D02*
D03*
X17685D02*
D03*
X23228Y19126D02*
D03*
Y15126D02*
D03*
X5543Y9843D02*
D03*
X1543D02*
D03*
D27*
X9646Y2559D02*
D03*
X20079Y9646D02*
D03*
X21260Y3346D02*
D03*
X13764Y3150D02*
D03*
D28*
X24803Y24803D02*
D03*
Y787D02*
D03*
X787D02*
D03*
Y24803D02*
D03*
M02*
