M48
;Layer_Color=9474304
;FILE_FORMAT=2:4
INCH,LZ
;TYPE=PLATED
T1F00S00C0.0280
T2F00S00C0.0300
T3F00S00C0.0335
T4F00S00C0.0394
T5F00S00C0.0433
%
T01
X024803Y000787
X000787
X024803Y024803
X000787
T02
X004764Y012551
X005764
X006764
X007764
X008764
X009764
X010764
X011764
X012764
X013764
X014764
X015764
X016764
X017764
X018764
Y018551
X017764
X016764
X015764
X014764
X013764
X012764
X011764
X010764
X009764
X008764
X007764
X006764
X005764
X004764
T03
X001543Y009843
X000984Y020472
X004984
X006465Y020866
X010465
X011811
X015811
X017685Y021063
X005543Y009843
X023228Y015126
Y019126
X021685Y021063
T04
X001575Y005512
X002575
X002453Y023819
X003453
X00639
X00739
X011705Y024213
X012705
X016626Y024409
X017626
X021941Y024606
X022941
T05
X02026Y003346
X02126
X023425Y003921
Y004921
Y005921
X01926Y003346
X015764Y00315
X014764
X013764
X009646Y002559
X008646
X007646
X007677Y00748
Y00848
X012008Y008161
Y009161
X018079Y009646
X019079
X020079
M30
