G04*
G04 #@! TF.GenerationSoftware,Altium Limited,Altium Designer,22.6.1 (34)*
G04*
G04 Layer_Physical_Order=2*
G04 Layer_Color=16711680*
%FSLAX24Y24*%
%MOIN*%
G70*
G04*
G04 #@! TF.SameCoordinates,6E773C18-5622-4DD5-A5AB-6A1A1A176540*
G04*
G04*
G04 #@! TF.FilePolarity,Positive*
G04*
G01*
G75*
%ADD14C,0.0100*%
%ADD22C,0.0630*%
%ADD23R,0.0630X0.0630*%
%ADD24C,0.0600*%
%ADD25C,0.0591*%
%ADD26C,0.0551*%
%ADD27R,0.0630X0.0630*%
%ADD28C,0.0500*%
%ADD29C,0.0118*%
G36*
X25222Y565D02*
X25150D01*
X25125Y608D01*
X25146Y645D01*
X25171Y739D01*
Y836D01*
X25146Y929D01*
X25098Y1013D01*
X25029Y1082D01*
X24945Y1130D01*
X24852Y1156D01*
X24755D01*
X24661Y1130D01*
X24577Y1082D01*
X24509Y1013D01*
X24460Y929D01*
X24435Y836D01*
Y739D01*
X24460Y645D01*
X24481Y608D01*
X24456Y565D01*
X1134D01*
X1109Y608D01*
X1130Y645D01*
X1156Y739D01*
Y836D01*
X1130Y929D01*
X1082Y1013D01*
X1013Y1082D01*
X929Y1130D01*
X836Y1156D01*
X739D01*
X645Y1130D01*
X561Y1082D01*
X493Y1013D01*
X444Y929D01*
X419Y836D01*
Y739D01*
X444Y645D01*
X466Y608D01*
X441Y565D01*
X368D01*
Y25222D01*
X25222D01*
Y565D01*
D02*
G37*
%LPC*%
G36*
X24852Y25171D02*
X24755D01*
X24661Y25146D01*
X24577Y25098D01*
X24509Y25029D01*
X24460Y24945D01*
X24435Y24852D01*
Y24755D01*
X24460Y24661D01*
X24509Y24577D01*
X24577Y24509D01*
X24661Y24460D01*
X24755Y24435D01*
X24852D01*
X24945Y24460D01*
X25029Y24509D01*
X25098Y24577D01*
X25146Y24661D01*
X25171Y24755D01*
Y24852D01*
X25146Y24945D01*
X25098Y25029D01*
X25029Y25098D01*
X24945Y25146D01*
X24852Y25171D01*
D02*
G37*
G36*
X836D02*
X739D01*
X645Y25146D01*
X561Y25098D01*
X493Y25029D01*
X444Y24945D01*
X419Y24852D01*
Y24755D01*
X444Y24661D01*
X493Y24577D01*
X561Y24509D01*
X645Y24460D01*
X739Y24435D01*
X836D01*
X929Y24460D01*
X1013Y24509D01*
X1082Y24577D01*
X1130Y24661D01*
X1156Y24755D01*
Y24852D01*
X1130Y24945D01*
X1082Y25029D01*
X1013Y25098D01*
X929Y25146D01*
X836Y25171D01*
D02*
G37*
G36*
X17154Y25063D02*
X12374D01*
X12305Y25049D01*
X12246Y25010D01*
X11577Y24340D01*
X11236Y24000D01*
X7584D01*
X7570Y24016D01*
X7557Y24085D01*
X7517Y24143D01*
X7514Y24147D01*
X7455Y24187D01*
X7386Y24200D01*
X7317Y24187D01*
X7293Y24171D01*
X7045Y24419D01*
X6986Y24458D01*
X6917Y24472D01*
X5421D01*
X5352Y24458D01*
X5294Y24419D01*
X4874Y24000D01*
X3453D01*
X3384Y23986D01*
X3325Y23947D01*
X3286Y23888D01*
X3272Y23819D01*
X3286Y23750D01*
X3325Y23691D01*
X3384Y23652D01*
X3453Y23638D01*
X4949D01*
X5018Y23652D01*
X5077Y23691D01*
X5496Y24111D01*
X6033D01*
X6052Y24061D01*
X6005Y23978D01*
X5976Y23873D01*
Y23764D01*
X6005Y23659D01*
X6059Y23565D01*
X6136Y23488D01*
X6230Y23434D01*
X6247Y23429D01*
Y21195D01*
X6223Y21181D01*
X6150Y21108D01*
X6098Y21018D01*
X6071Y20918D01*
Y20814D01*
X6098Y20714D01*
X6138Y20644D01*
X6113Y20594D01*
X6055D01*
X5892Y20757D01*
X5833Y20796D01*
X5764Y20810D01*
X5695Y20796D01*
X5636Y20757D01*
X5597Y20699D01*
X5584Y20630D01*
Y18551D01*
Y14551D01*
X5597Y14482D01*
X5636Y14423D01*
X7636Y12423D01*
X7695Y12384D01*
X7764Y12371D01*
X7833Y12384D01*
X7892Y12423D01*
X8316Y12848D01*
X8406D01*
X8424Y12798D01*
X8375Y12713D01*
X8346Y12606D01*
Y12496D01*
X8369Y12411D01*
X8212Y12255D01*
X7123D01*
X7105Y12305D01*
X7154Y12390D01*
X7182Y12496D01*
Y12606D01*
X7154Y12713D01*
X7099Y12808D01*
X7021Y12886D01*
X6926Y12941D01*
X6819Y12969D01*
X6709D01*
X6603Y12941D01*
X6507Y12886D01*
X6454Y12832D01*
X6451Y12831D01*
X6393Y12841D01*
X6369Y12877D01*
X5468Y13778D01*
Y18703D01*
X5454Y18772D01*
X5415Y18831D01*
X4549Y19697D01*
X4490Y19736D01*
X4421Y19750D01*
X1962D01*
X1360Y20352D01*
X1378Y20421D01*
Y20524D01*
X1351Y20624D01*
X1299Y20714D01*
X1226Y20787D01*
X1136Y20839D01*
X1036Y20866D01*
X932D01*
X832Y20839D01*
X743Y20787D01*
X669Y20714D01*
X617Y20624D01*
X591Y20524D01*
Y20421D01*
X617Y20320D01*
X669Y20231D01*
X743Y20157D01*
X832Y20106D01*
X932Y20079D01*
X1036D01*
X1104Y20097D01*
X1760Y19441D01*
X1818Y19402D01*
X1887Y19389D01*
X4346D01*
X4720Y19014D01*
X4698Y18966D01*
X4603Y18941D01*
X4507Y18886D01*
X4430Y18808D01*
X4375Y18713D01*
X4346Y18606D01*
Y18496D01*
X4369Y18411D01*
X1416Y15458D01*
X1376Y15399D01*
X1363Y15330D01*
Y10193D01*
X1302Y10158D01*
X1228Y10084D01*
X1176Y9994D01*
X1150Y9894D01*
Y9791D01*
X1176Y9691D01*
X1228Y9601D01*
X1302Y9527D01*
X1391Y9476D01*
X1491Y9449D01*
X1595D01*
X1695Y9476D01*
X1785Y9527D01*
X1858Y9601D01*
X1910Y9691D01*
X1937Y9791D01*
Y9894D01*
X1919Y9962D01*
X2071Y10115D01*
X5192D01*
X5217Y10065D01*
X5176Y9994D01*
X5150Y9894D01*
Y9791D01*
X5168Y9723D01*
X1537Y6092D01*
X1498Y6034D01*
X1485Y5964D01*
Y5916D01*
X1415Y5897D01*
X1321Y5843D01*
X1244Y5766D01*
X1190Y5671D01*
X1161Y5566D01*
Y5457D01*
X1190Y5352D01*
X1244Y5258D01*
X1321Y5181D01*
X1415Y5127D01*
X1520Y5098D01*
X1629D01*
X1734Y5127D01*
X1829Y5181D01*
X1906Y5258D01*
X1960Y5352D01*
X1988Y5457D01*
Y5566D01*
X1960Y5671D01*
X1906Y5766D01*
X1846Y5825D01*
Y5890D01*
X5423Y9467D01*
X5491Y9449D01*
X5595D01*
X5695Y9476D01*
X5785Y9527D01*
X5858Y9601D01*
X5910Y9691D01*
X5931Y9769D01*
X5984Y9787D01*
X6395Y9375D01*
Y8581D01*
X6409Y8512D01*
X6448Y8454D01*
X7244Y7658D01*
Y7047D01*
X7497D01*
Y3051D01*
X7501Y3030D01*
X7455Y3006D01*
X4821Y5640D01*
X4762Y5679D01*
X4693Y5692D01*
X2575D01*
X2506Y5679D01*
X2447Y5640D01*
X2408Y5581D01*
X2394Y5512D01*
X2408Y5443D01*
X2447Y5384D01*
X2506Y5345D01*
X2575Y5331D01*
X4618D01*
X7518Y2431D01*
X7577Y2392D01*
X7646Y2378D01*
X7715Y2392D01*
X7773Y2431D01*
X8297Y2955D01*
X8336Y3014D01*
X8350Y3083D01*
Y7988D01*
X8336Y8057D01*
X8297Y8116D01*
X7933Y8480D01*
X9369Y9917D01*
X9408Y9975D01*
X9422Y10044D01*
Y10212D01*
X9468Y10231D01*
X11394Y8305D01*
X11453Y8266D01*
X11522Y8252D01*
X11523D01*
X11742Y8034D01*
X11800Y7995D01*
X11869Y7981D01*
X12008D01*
X12077Y7995D01*
X12136Y8034D01*
X12175Y8092D01*
X12189Y8161D01*
X12175Y8231D01*
X12136Y8289D01*
X12077Y8328D01*
X12008Y8342D01*
X11944D01*
X11844Y8442D01*
X11863Y8489D01*
X12121D01*
X12319Y8290D01*
Y8032D01*
X9953Y5666D01*
X9764D01*
X9695Y5653D01*
X9636Y5613D01*
X8518Y4495D01*
X8479Y4436D01*
X8465Y4367D01*
Y2955D01*
X8380Y2906D01*
X8299Y2825D01*
X8242Y2726D01*
X8213Y2616D01*
Y2502D01*
X8242Y2392D01*
X8299Y2293D01*
X8380Y2213D01*
X8479Y2156D01*
X8589Y2126D01*
X8703D01*
X8813Y2156D01*
X8912Y2213D01*
X8992Y2293D01*
X9049Y2392D01*
X9079Y2502D01*
Y2616D01*
X9049Y2726D01*
X8992Y2825D01*
X8912Y2906D01*
X8826Y2955D01*
Y4292D01*
X9839Y5305D01*
X10028D01*
X10097Y5319D01*
X10156Y5358D01*
X12509Y7711D01*
X12556Y7692D01*
Y2963D01*
X12569Y2894D01*
X12608Y2835D01*
X12658Y2786D01*
X12638Y2740D01*
X10079D01*
Y2992D01*
X9213D01*
Y2126D01*
X10079D01*
Y2378D01*
X13173D01*
X13242Y2392D01*
X13301Y2431D01*
X13586Y2717D01*
X14197D01*
Y3327D01*
X14331Y3461D01*
X14398D01*
X14406Y3443D01*
X14415Y3411D01*
X14360Y3317D01*
X14331Y3207D01*
Y3093D01*
X14360Y2982D01*
X14417Y2884D01*
X14498Y2803D01*
X14597Y2746D01*
X14707Y2717D01*
X14821D01*
X14892Y2736D01*
X15334Y2294D01*
X15393Y2254D01*
X15462Y2241D01*
X22621D01*
X22690Y2254D01*
X22749Y2294D01*
X24045Y3590D01*
X24084Y3648D01*
X24098Y3717D01*
Y8073D01*
X24084Y8142D01*
X24045Y8201D01*
X19090Y13156D01*
X19031Y13195D01*
X18962Y13209D01*
X16241D01*
X16172Y13195D01*
X16114Y13156D01*
X15904Y12947D01*
X15819Y12969D01*
X15709D01*
X15603Y12941D01*
X15507Y12886D01*
X15430Y12808D01*
X15375Y12713D01*
X15346Y12606D01*
Y12496D01*
X15375Y12390D01*
X15430Y12294D01*
X15507Y12217D01*
X15603Y12162D01*
X15709Y12133D01*
X15819D01*
X15926Y12162D01*
X16021Y12217D01*
X16099Y12294D01*
X16154Y12390D01*
X16182Y12496D01*
Y12606D01*
X16160Y12691D01*
X16316Y12848D01*
X16406D01*
X16424Y12798D01*
X16375Y12713D01*
X16346Y12606D01*
Y12496D01*
X16375Y12390D01*
X16430Y12294D01*
X16507Y12217D01*
X16603Y12162D01*
X16709Y12133D01*
X16819D01*
X16926Y12162D01*
X17021Y12217D01*
X17099Y12294D01*
X17154Y12390D01*
X17182Y12496D01*
Y12606D01*
X17154Y12713D01*
X17105Y12798D01*
X17123Y12848D01*
X17406D01*
X17424Y12798D01*
X17375Y12713D01*
X17346Y12606D01*
Y12496D01*
X17375Y12390D01*
X17430Y12294D01*
X17507Y12217D01*
X17603Y12162D01*
X17709Y12133D01*
X17819D01*
X17926Y12162D01*
X18021Y12217D01*
X18099Y12294D01*
X18154Y12390D01*
X18182Y12496D01*
Y12606D01*
X18154Y12713D01*
X18105Y12798D01*
X18123Y12848D01*
X18406D01*
X18424Y12798D01*
X18375Y12713D01*
X18346Y12606D01*
Y12496D01*
X18375Y12390D01*
X18430Y12294D01*
X18507Y12217D01*
X18603Y12162D01*
X18709Y12133D01*
X18819D01*
X18926Y12162D01*
X19021Y12217D01*
X19099Y12294D01*
X19154Y12390D01*
X19179Y12485D01*
X19227Y12507D01*
X23737Y7998D01*
Y6354D01*
X23350D01*
Y6555D01*
X23336Y6624D01*
X23297Y6683D01*
X20512Y9468D01*
Y10079D01*
X19646D01*
Y10079D01*
X19611Y10065D01*
X18394Y11282D01*
X18335Y11321D01*
X18266Y11335D01*
X14236D01*
X13160Y12411D01*
X13182Y12496D01*
Y12606D01*
X13154Y12713D01*
X13099Y12808D01*
X13021Y12886D01*
X12926Y12941D01*
X12819Y12969D01*
X12709D01*
X12603Y12941D01*
X12507Y12886D01*
X12430Y12808D01*
X12375Y12713D01*
X12346Y12606D01*
Y12496D01*
X12375Y12390D01*
X12430Y12294D01*
X12507Y12217D01*
X12603Y12162D01*
X12709Y12133D01*
X12819D01*
X12904Y12156D01*
X13915Y11145D01*
X13896Y11099D01*
X13472D01*
X12160Y12411D01*
X12182Y12496D01*
Y12606D01*
X12154Y12713D01*
X12099Y12808D01*
X12021Y12886D01*
X11926Y12941D01*
X11819Y12969D01*
X11709D01*
X11603Y12941D01*
X11507Y12886D01*
X11430Y12808D01*
X11375Y12713D01*
X11346Y12606D01*
Y12496D01*
X11375Y12390D01*
X11430Y12294D01*
X11507Y12217D01*
X11603Y12162D01*
X11709Y12133D01*
X11819D01*
X11904Y12156D01*
X13270Y10790D01*
X13328Y10751D01*
X13397Y10737D01*
X17732D01*
X18671Y9798D01*
X18646Y9703D01*
Y9589D01*
X18675Y9479D01*
X18732Y9380D01*
X18813Y9299D01*
X18912Y9242D01*
X19022Y9213D01*
X19136D01*
X19246Y9242D01*
X19340Y9297D01*
X19373Y9288D01*
X19390Y9280D01*
Y5744D01*
X19404Y5675D01*
X19443Y5617D01*
X20079Y4981D01*
Y3742D01*
X19994Y3693D01*
X19913Y3612D01*
X19856Y3514D01*
X19827Y3403D01*
Y3289D01*
X19856Y3179D01*
X19913Y3081D01*
X19994Y3000D01*
X20093Y2943D01*
X20203Y2913D01*
X20317D01*
X20427Y2943D01*
X20526Y3000D01*
X20606Y3081D01*
X20663Y3179D01*
X20693Y3289D01*
Y3403D01*
X20663Y3514D01*
X20606Y3612D01*
X20526Y3693D01*
X20440Y3742D01*
Y5056D01*
X20427Y5125D01*
X20388Y5183D01*
X19751Y5819D01*
Y9213D01*
X20256D01*
X22989Y6480D01*
Y6177D01*
X22992Y6160D01*
Y5744D01*
X21388Y4140D01*
X21349Y4081D01*
X21335Y4012D01*
Y3780D01*
X20827D01*
Y3169D01*
X20496Y2838D01*
X15635D01*
X15444Y3028D01*
Y3346D01*
X15431Y3415D01*
X15392Y3473D01*
X15095Y3769D01*
X15037Y3809D01*
X14968Y3822D01*
X14256D01*
X14187Y3809D01*
X14128Y3769D01*
X13941Y3583D01*
X13331D01*
Y2972D01*
X13157Y2798D01*
X12917Y3037D01*
Y8463D01*
X12903Y8532D01*
X12864Y8591D01*
X12441Y9014D01*
Y9594D01*
X11575D01*
Y9035D01*
X11529Y9016D01*
X9945Y10599D01*
Y12173D01*
X10021Y12217D01*
X10074Y12270D01*
X10078Y12271D01*
X10135Y12262D01*
X10159Y12226D01*
X14836Y7549D01*
X14894Y7510D01*
X14963Y7497D01*
X17898D01*
Y4528D01*
X17912Y4458D01*
X17951Y4400D01*
X18935Y3416D01*
X18850Y3330D01*
X15764D01*
X15695Y3316D01*
X15636Y3277D01*
X15597Y3219D01*
X15583Y3150D01*
X15597Y3080D01*
X15636Y3022D01*
X15695Y2983D01*
X15764Y2969D01*
X18924D01*
X18994Y2983D01*
X19052Y3022D01*
X19196Y3166D01*
X19260D01*
X19329Y3180D01*
X19388Y3219D01*
X19427Y3277D01*
X19440Y3346D01*
X19427Y3416D01*
X19388Y3474D01*
X18259Y4602D01*
Y7677D01*
Y9646D01*
X18246Y9715D01*
X18206Y9773D01*
X18148Y9813D01*
X18079Y9826D01*
X18010Y9813D01*
X17951Y9773D01*
X17912Y9715D01*
X17898Y9646D01*
Y7858D01*
X15038D01*
X10808Y12088D01*
X10831Y12136D01*
X10926Y12162D01*
X11021Y12217D01*
X11099Y12294D01*
X11154Y12390D01*
X11182Y12496D01*
Y12606D01*
X11154Y12713D01*
X11099Y12808D01*
X11021Y12886D01*
X10926Y12941D01*
X10819Y12969D01*
X10709D01*
X10631Y12948D01*
X10468Y13112D01*
Y18193D01*
X10518Y18211D01*
X10603Y18162D01*
X10709Y18133D01*
X10819D01*
X10926Y18162D01*
X11021Y18217D01*
X11099Y18294D01*
X11154Y18390D01*
X11182Y18496D01*
Y18606D01*
X11154Y18713D01*
X11099Y18808D01*
X11021Y18886D01*
X10926Y18941D01*
X10819Y18969D01*
X10709D01*
X10603Y18941D01*
X10518Y18892D01*
X10468Y18910D01*
Y19388D01*
X10592Y19512D01*
X10631Y19571D01*
X10645Y19640D01*
Y20516D01*
X10706Y20551D01*
X10780Y20624D01*
X10831Y20714D01*
X10858Y20814D01*
Y20918D01*
X10831Y21018D01*
X10780Y21108D01*
X10706Y21181D01*
X10617Y21233D01*
X10516Y21260D01*
X10413D01*
X10313Y21233D01*
X10223Y21181D01*
X10150Y21108D01*
X10098Y21018D01*
X10071Y20918D01*
Y20814D01*
X10098Y20714D01*
X10150Y20624D01*
X10223Y20551D01*
X10284Y20516D01*
Y19715D01*
X10159Y19590D01*
X10120Y19532D01*
X10106Y19462D01*
Y18871D01*
X10056Y18850D01*
X10021Y18886D01*
X9926Y18941D01*
X9819Y18969D01*
X9709D01*
X9603Y18941D01*
X9507Y18886D01*
X9430Y18808D01*
X9375Y18713D01*
X9346Y18606D01*
Y18496D01*
X9375Y18390D01*
X9430Y18294D01*
X9507Y18217D01*
X9603Y18162D01*
X9709Y18133D01*
X9819D01*
X9926Y18162D01*
X10021Y18217D01*
X10056Y18252D01*
X10106Y18231D01*
Y13205D01*
X10056Y13178D01*
X10031Y13195D01*
X9962Y13209D01*
X9567D01*
X9497Y13195D01*
X9439Y13156D01*
X9264Y12981D01*
X9090Y13156D01*
X9031Y13195D01*
X8962Y13209D01*
X8241D01*
X8172Y13195D01*
X8114Y13156D01*
X7764Y12807D01*
X5945Y14626D01*
Y18551D01*
Y20204D01*
X5980Y20233D01*
X6652D01*
X6721Y20247D01*
X6780Y20286D01*
X7103Y20609D01*
X7143Y20668D01*
X7156Y20737D01*
Y23330D01*
X7465Y23638D01*
X11311D01*
X11380Y23652D01*
X11439Y23691D01*
X11832Y24085D01*
X12449Y24701D01*
X16269D01*
X16288Y24651D01*
X16241Y24569D01*
X16213Y24464D01*
Y24355D01*
X16241Y24250D01*
X16295Y24156D01*
X16372Y24079D01*
X16466Y24024D01*
X16572Y23996D01*
X16680D01*
X16762Y24018D01*
X19845Y20935D01*
X19903Y20896D01*
X19972Y20882D01*
X21335D01*
X21370Y20821D01*
X21443Y20748D01*
X21533Y20696D01*
X21633Y20669D01*
X21737D01*
X21837Y20696D01*
X21927Y20748D01*
X22000Y20821D01*
X22052Y20911D01*
X22079Y21011D01*
Y21115D01*
X22052Y21215D01*
X22000Y21305D01*
X21927Y21378D01*
X21837Y21430D01*
X21737Y21457D01*
X21633D01*
X21533Y21430D01*
X21443Y21378D01*
X21370Y21305D01*
X21335Y21244D01*
X20047D01*
X17018Y24273D01*
X17039Y24355D01*
Y24464D01*
X17011Y24569D01*
X16964Y24651D01*
X16983Y24701D01*
X17079D01*
X17498Y24282D01*
X17557Y24243D01*
X17626Y24229D01*
X21616D01*
X21685Y24243D01*
X21744Y24282D01*
X21888Y24426D01*
X21941D01*
X22010Y24439D01*
X22069Y24479D01*
X22108Y24537D01*
X22122Y24606D01*
Y24734D01*
X22108Y24803D01*
X22069Y24862D01*
X22010Y24901D01*
X21941Y24915D01*
X21872Y24901D01*
X21813Y24862D01*
X21774Y24803D01*
X21769Y24778D01*
X21744Y24773D01*
X21685Y24734D01*
X21541Y24590D01*
X17701D01*
X17281Y25010D01*
X17223Y25049D01*
X17154Y25063D01*
D02*
G37*
G36*
X12759Y24626D02*
X12650D01*
X12545Y24598D01*
X12451Y24543D01*
X12374Y24466D01*
X12320Y24372D01*
X12291Y24267D01*
Y24158D01*
X12320Y24053D01*
X12374Y23959D01*
X12451Y23882D01*
X12524Y23840D01*
Y21835D01*
X11931Y21242D01*
X11863Y21260D01*
X11759D01*
X11659Y21233D01*
X11569Y21181D01*
X11496Y21108D01*
X11444Y21018D01*
X11417Y20918D01*
Y20814D01*
X11444Y20714D01*
X11496Y20624D01*
X11569Y20551D01*
X11659Y20499D01*
X11759Y20472D01*
X11863D01*
X11963Y20499D01*
X12053Y20551D01*
X12126Y20624D01*
X12178Y20714D01*
X12205Y20814D01*
Y20918D01*
X12186Y20986D01*
X12832Y21632D01*
X12872Y21691D01*
X12885Y21760D01*
Y23840D01*
X12959Y23882D01*
X13036Y23959D01*
X13090Y24053D01*
X13118Y24158D01*
Y24267D01*
X13090Y24372D01*
X13036Y24466D01*
X12959Y24543D01*
X12864Y24598D01*
X12759Y24626D01*
D02*
G37*
G36*
X2507Y24232D02*
X2398D01*
X2293Y24204D01*
X2199Y24150D01*
X2122Y24073D01*
X2068Y23978D01*
X2039Y23873D01*
Y23764D01*
X2068Y23659D01*
X2122Y23565D01*
X2199Y23488D01*
X2293Y23434D01*
X2398Y23406D01*
X2507D01*
X2589Y23427D01*
X4804Y21213D01*
Y20823D01*
X4743Y20787D01*
X4669Y20714D01*
X4617Y20624D01*
X4591Y20524D01*
Y20421D01*
X4617Y20320D01*
X4669Y20231D01*
X4743Y20157D01*
X4832Y20106D01*
X4932Y20079D01*
X5036D01*
X5136Y20106D01*
X5226Y20157D01*
X5299Y20231D01*
X5351Y20320D01*
X5378Y20421D01*
Y20524D01*
X5351Y20624D01*
X5299Y20714D01*
X5226Y20787D01*
X5165Y20823D01*
Y21287D01*
X5151Y21357D01*
X5112Y21415D01*
X2844Y23683D01*
X2866Y23764D01*
Y23873D01*
X2838Y23978D01*
X2784Y24073D01*
X2707Y24150D01*
X2612Y24204D01*
X2507Y24232D01*
D02*
G37*
G36*
X17737Y21457D02*
X17633D01*
X17533Y21430D01*
X17443Y21378D01*
X17370Y21305D01*
X17318Y21215D01*
X17291Y21115D01*
Y21011D01*
X17318Y20911D01*
X17370Y20821D01*
X17443Y20748D01*
X17504Y20713D01*
Y19222D01*
X17124Y18841D01*
X17067Y18839D01*
X17021Y18886D01*
X16926Y18941D01*
X16819Y18969D01*
X16709D01*
X16603Y18941D01*
X16507Y18886D01*
X16430Y18808D01*
X16375Y18713D01*
X16346Y18606D01*
Y18496D01*
X16375Y18390D01*
X16430Y18294D01*
X16507Y18217D01*
X16603Y18162D01*
X16709Y18133D01*
X16819D01*
X16926Y18162D01*
X17011Y18211D01*
X17061Y18193D01*
Y15112D01*
X14897Y12948D01*
X14819Y12969D01*
X14709D01*
X14603Y12941D01*
X14507Y12886D01*
X14430Y12808D01*
X14375Y12713D01*
X14346Y12606D01*
Y12496D01*
X14375Y12390D01*
X14430Y12294D01*
X14507Y12217D01*
X14603Y12162D01*
X14709Y12133D01*
X14819D01*
X14926Y12162D01*
X15021Y12217D01*
X15099Y12294D01*
X15154Y12390D01*
X15182Y12496D01*
Y12606D01*
X15158Y12698D01*
X17369Y14909D01*
X17408Y14968D01*
X17422Y15037D01*
Y18231D01*
X17472Y18252D01*
X17507Y18217D01*
X17603Y18162D01*
X17709Y18133D01*
X17819D01*
X17926Y18162D01*
X18021Y18217D01*
X18099Y18294D01*
X18154Y18390D01*
X18182Y18496D01*
Y18606D01*
X18154Y18713D01*
X18099Y18808D01*
X18021Y18886D01*
X17926Y18941D01*
X17831Y18966D01*
X17808Y19014D01*
X17813Y19019D01*
X17852Y19078D01*
X17866Y19147D01*
Y20713D01*
X17927Y20748D01*
X18000Y20821D01*
X18052Y20911D01*
X18079Y21011D01*
Y21115D01*
X18052Y21215D01*
X18000Y21305D01*
X17927Y21378D01*
X17837Y21430D01*
X17737Y21457D01*
D02*
G37*
G36*
X15863Y21260D02*
X15759D01*
X15659Y21233D01*
X15569Y21181D01*
X15496Y21108D01*
X15444Y21018D01*
X15417Y20918D01*
Y20814D01*
X15444Y20714D01*
X15496Y20624D01*
X15569Y20551D01*
X15630Y20516D01*
Y19348D01*
X15124Y18841D01*
X15067Y18839D01*
X15021Y18886D01*
X14926Y18941D01*
X14819Y18969D01*
X14709D01*
X14603Y18941D01*
X14507Y18886D01*
X14430Y18808D01*
X14375Y18713D01*
X14346Y18606D01*
Y18496D01*
X14375Y18390D01*
X14430Y18294D01*
X14507Y18217D01*
X14603Y18162D01*
X14709Y18133D01*
X14819D01*
X14926Y18162D01*
X15011Y18211D01*
X15061Y18193D01*
Y14103D01*
X13904Y12947D01*
X13819Y12969D01*
X13709D01*
X13603Y12941D01*
X13507Y12886D01*
X13430Y12808D01*
X13375Y12713D01*
X13346Y12606D01*
Y12496D01*
X13375Y12390D01*
X13430Y12294D01*
X13507Y12217D01*
X13603Y12162D01*
X13709Y12133D01*
X13819D01*
X13926Y12162D01*
X14021Y12217D01*
X14099Y12294D01*
X14154Y12390D01*
X14182Y12496D01*
Y12606D01*
X14160Y12691D01*
X15369Y13901D01*
X15408Y13959D01*
X15422Y14028D01*
Y18231D01*
X15472Y18252D01*
X15507Y18217D01*
X15603Y18162D01*
X15709Y18133D01*
X15819D01*
X15926Y18162D01*
X16021Y18217D01*
X16099Y18294D01*
X16154Y18390D01*
X16182Y18496D01*
Y18606D01*
X16154Y18713D01*
X16099Y18808D01*
X16021Y18886D01*
X15926Y18941D01*
X15831Y18966D01*
X15808Y19014D01*
X15939Y19145D01*
X15978Y19204D01*
X15992Y19273D01*
Y20516D01*
X16053Y20551D01*
X16126Y20624D01*
X16178Y20714D01*
X16205Y20814D01*
Y20918D01*
X16178Y21018D01*
X16126Y21108D01*
X16053Y21181D01*
X15963Y21233D01*
X15863Y21260D01*
D02*
G37*
G36*
X22995Y25020D02*
X22887D01*
X22781Y24992D01*
X22687Y24937D01*
X22610Y24860D01*
X22556Y24766D01*
X22528Y24661D01*
Y24552D01*
X22556Y24447D01*
X22610Y24352D01*
X22687Y24276D01*
X22760Y24233D01*
Y19479D01*
X22774Y19410D01*
X22813Y19351D01*
X22871Y19294D01*
X22861Y19278D01*
X22835Y19178D01*
Y19074D01*
X22861Y18974D01*
X22913Y18884D01*
X22987Y18811D01*
X23076Y18759D01*
X23177Y18732D01*
X23280D01*
X23380Y18759D01*
X23470Y18811D01*
X23543Y18884D01*
X23595Y18974D01*
X23622Y19074D01*
Y19178D01*
X23595Y19278D01*
X23543Y19368D01*
X23470Y19441D01*
X23380Y19493D01*
X23280Y19520D01*
X23177D01*
X23160Y19515D01*
X23122Y19554D01*
Y24233D01*
X23195Y24276D01*
X23272Y24352D01*
X23326Y24447D01*
X23354Y24552D01*
Y24661D01*
X23326Y24766D01*
X23272Y24860D01*
X23195Y24937D01*
X23101Y24992D01*
X22995Y25020D01*
D02*
G37*
G36*
X13819Y18969D02*
X13709D01*
X13603Y18941D01*
X13507Y18886D01*
X13430Y18808D01*
X13375Y18713D01*
X13346Y18606D01*
Y18496D01*
X13375Y18390D01*
X13430Y18294D01*
X13507Y18217D01*
X13603Y18162D01*
X13709Y18133D01*
X13819D01*
X13926Y18162D01*
X14021Y18217D01*
X14099Y18294D01*
X14154Y18390D01*
X14182Y18496D01*
Y18606D01*
X14154Y18713D01*
X14099Y18808D01*
X14021Y18886D01*
X13926Y18941D01*
X13819Y18969D01*
D02*
G37*
G36*
X12819D02*
X12709D01*
X12603Y18941D01*
X12507Y18886D01*
X12430Y18808D01*
X12375Y18713D01*
X12346Y18606D01*
Y18496D01*
X12375Y18390D01*
X12430Y18294D01*
X12507Y18217D01*
X12603Y18162D01*
X12709Y18133D01*
X12819D01*
X12926Y18162D01*
X13021Y18217D01*
X13099Y18294D01*
X13154Y18390D01*
X13182Y18496D01*
Y18606D01*
X13154Y18713D01*
X13099Y18808D01*
X13021Y18886D01*
X12926Y18941D01*
X12819Y18969D01*
D02*
G37*
G36*
X11819D02*
X11709D01*
X11603Y18941D01*
X11507Y18886D01*
X11430Y18808D01*
X11375Y18713D01*
X11346Y18606D01*
Y18496D01*
X11375Y18390D01*
X11430Y18294D01*
X11507Y18217D01*
X11603Y18162D01*
X11709Y18133D01*
X11819D01*
X11926Y18162D01*
X12021Y18217D01*
X12099Y18294D01*
X12154Y18390D01*
X12182Y18496D01*
Y18606D01*
X12154Y18713D01*
X12099Y18808D01*
X12021Y18886D01*
X11926Y18941D01*
X11819Y18969D01*
D02*
G37*
G36*
X8819D02*
X8709D01*
X8603Y18941D01*
X8507Y18886D01*
X8430Y18808D01*
X8375Y18713D01*
X8346Y18606D01*
Y18496D01*
X8375Y18390D01*
X8430Y18294D01*
X8507Y18217D01*
X8603Y18162D01*
X8709Y18133D01*
X8819D01*
X8926Y18162D01*
X9021Y18217D01*
X9099Y18294D01*
X9154Y18390D01*
X9182Y18496D01*
Y18606D01*
X9154Y18713D01*
X9099Y18808D01*
X9021Y18886D01*
X8926Y18941D01*
X8819Y18969D01*
D02*
G37*
G36*
X7819D02*
X7709D01*
X7603Y18941D01*
X7507Y18886D01*
X7430Y18808D01*
X7375Y18713D01*
X7346Y18606D01*
Y18496D01*
X7375Y18390D01*
X7430Y18294D01*
X7507Y18217D01*
X7603Y18162D01*
X7709Y18133D01*
X7819D01*
X7926Y18162D01*
X8021Y18217D01*
X8099Y18294D01*
X8154Y18390D01*
X8182Y18496D01*
Y18606D01*
X8154Y18713D01*
X8099Y18808D01*
X8021Y18886D01*
X7926Y18941D01*
X7819Y18969D01*
D02*
G37*
G36*
X6819D02*
X6709D01*
X6603Y18941D01*
X6507Y18886D01*
X6430Y18808D01*
X6375Y18713D01*
X6346Y18606D01*
Y18496D01*
X6375Y18390D01*
X6430Y18294D01*
X6507Y18217D01*
X6603Y18162D01*
X6709Y18133D01*
X6819D01*
X6926Y18162D01*
X7021Y18217D01*
X7099Y18294D01*
X7154Y18390D01*
X7182Y18496D01*
Y18606D01*
X7154Y18713D01*
X7099Y18808D01*
X7021Y18886D01*
X6926Y18941D01*
X6819Y18969D01*
D02*
G37*
G36*
X18819D02*
X18709D01*
X18603Y18941D01*
X18507Y18886D01*
X18430Y18808D01*
X18375Y18713D01*
X18346Y18606D01*
Y18496D01*
X18375Y18390D01*
X18430Y18294D01*
X18507Y18217D01*
X18603Y18162D01*
X18709Y18133D01*
X18819D01*
X18926Y18162D01*
X19021Y18217D01*
X19099Y18294D01*
X19143Y18371D01*
X19728D01*
X22853Y15246D01*
X22835Y15178D01*
Y15074D01*
X22861Y14974D01*
X22913Y14884D01*
X22987Y14811D01*
X23076Y14759D01*
X23177Y14732D01*
X23280D01*
X23380Y14759D01*
X23470Y14811D01*
X23543Y14884D01*
X23595Y14974D01*
X23622Y15074D01*
Y15178D01*
X23595Y15278D01*
X23543Y15368D01*
X23470Y15441D01*
X23380Y15493D01*
X23280Y15520D01*
X23177D01*
X23108Y15501D01*
X19931Y18679D01*
X19872Y18718D01*
X19803Y18732D01*
X19143D01*
X19099Y18808D01*
X19021Y18886D01*
X18926Y18941D01*
X18819Y18969D01*
D02*
G37*
%LPD*%
G36*
X7134Y23819D02*
X6848Y23533D01*
X6809Y23474D01*
X6795Y23405D01*
Y21163D01*
X6745Y21142D01*
X6706Y21181D01*
X6617Y21233D01*
X6608Y21235D01*
Y23467D01*
X6644Y23488D01*
X6721Y23565D01*
X6775Y23659D01*
X6803Y23764D01*
Y23873D01*
X6775Y23978D01*
X6727Y24061D01*
X6747Y24111D01*
X6842D01*
X7134Y23819D01*
D02*
G37*
G36*
X5106Y18231D02*
Y13703D01*
X5120Y13634D01*
X5159Y13575D01*
X5720Y13014D01*
X5698Y12966D01*
X5603Y12941D01*
X5507Y12886D01*
X5430Y12808D01*
X5375Y12713D01*
X5346Y12606D01*
Y12496D01*
X5375Y12390D01*
X5430Y12294D01*
X5507Y12217D01*
X5603Y12162D01*
X5709Y12133D01*
X5819D01*
X5926Y12162D01*
X6021Y12217D01*
X6067Y12263D01*
X6124Y12261D01*
X6439Y11946D01*
X6497Y11907D01*
X6567Y11893D01*
X8287D01*
X8356Y11907D01*
X8415Y11946D01*
X8624Y12156D01*
X8709Y12133D01*
X8819D01*
X8926Y12162D01*
X9011Y12211D01*
X9061Y12193D01*
Y10119D01*
X7549Y8608D01*
X7510Y8549D01*
X7497Y8480D01*
X7510Y8411D01*
X7549Y8353D01*
X7942Y7960D01*
X7923Y7913D01*
X7500D01*
X6757Y8656D01*
Y9450D01*
X6743Y9519D01*
X6704Y9578D01*
X5859Y10423D01*
X5800Y10462D01*
X5731Y10476D01*
X1996D01*
X1927Y10462D01*
X1868Y10423D01*
X1770Y10325D01*
X1724Y10344D01*
Y15255D01*
X4624Y18156D01*
X4709Y18133D01*
X4819D01*
X4926Y18162D01*
X5021Y18217D01*
X5056Y18252D01*
X5106Y18231D01*
D02*
G37*
G36*
X23737Y5287D02*
X23719Y5279D01*
X23687Y5270D01*
X23592Y5325D01*
X23482Y5354D01*
X23368D01*
X23258Y5325D01*
X23159Y5268D01*
X23079Y5187D01*
X23022Y5088D01*
X22992Y4978D01*
Y4864D01*
X23022Y4754D01*
X23079Y4655D01*
X23159Y4575D01*
X23258Y4518D01*
X23368Y4488D01*
X23482D01*
X23592Y4518D01*
X23687Y4572D01*
X23719Y4563D01*
X23737Y4556D01*
Y4287D01*
X23719Y4279D01*
X23687Y4270D01*
X23592Y4325D01*
X23482Y4354D01*
X23368D01*
X23258Y4325D01*
X23159Y4268D01*
X23079Y4187D01*
X23022Y4088D01*
X22992Y3978D01*
Y3864D01*
X23022Y3754D01*
X23079Y3655D01*
X23159Y3575D01*
X23258Y3518D01*
X23363Y3490D01*
X23380Y3460D01*
X23387Y3443D01*
X22546Y2602D01*
X20836D01*
X20817Y2648D01*
X21082Y2913D01*
X21693D01*
Y3585D01*
X21696Y3602D01*
Y3937D01*
X23248Y5488D01*
X23737D01*
Y5287D01*
D02*
G37*
G36*
X7989Y3158D02*
X7908Y3077D01*
X7858Y3097D01*
Y7047D01*
X7989D01*
Y3158D01*
D02*
G37*
%LPC*%
G36*
X4819Y12969D02*
X4709D01*
X4603Y12941D01*
X4507Y12886D01*
X4430Y12808D01*
X4375Y12713D01*
X4346Y12606D01*
Y12496D01*
X4375Y12390D01*
X4430Y12294D01*
X4507Y12217D01*
X4603Y12162D01*
X4709Y12133D01*
X4819D01*
X4926Y12162D01*
X5021Y12217D01*
X5099Y12294D01*
X5154Y12390D01*
X5182Y12496D01*
Y12606D01*
X5154Y12713D01*
X5099Y12808D01*
X5021Y12886D01*
X4926Y12941D01*
X4819Y12969D01*
D02*
G37*
%LPD*%
D14*
X197Y394D02*
X25394D01*
X197Y25394D02*
X25394D01*
Y394D02*
Y25394D01*
X197Y394D02*
Y25394D01*
D22*
X7677Y8480D02*
D03*
X12008Y8161D02*
D03*
X8646Y2559D02*
D03*
X7646D02*
D03*
X19079Y9646D02*
D03*
X18079D02*
D03*
X20260Y3346D02*
D03*
X19260D02*
D03*
X14764Y3150D02*
D03*
X15764D02*
D03*
X23425Y4921D02*
D03*
Y3921D02*
D03*
D23*
X7677Y7480D02*
D03*
X12008Y9161D02*
D03*
X23425Y5921D02*
D03*
D24*
X18764Y18551D02*
D03*
X17764D02*
D03*
X16764D02*
D03*
X15764D02*
D03*
X14764D02*
D03*
X13764D02*
D03*
X12764D02*
D03*
X11764D02*
D03*
X10764D02*
D03*
X9764D02*
D03*
X8764D02*
D03*
X7764D02*
D03*
X6764D02*
D03*
X5764D02*
D03*
X4764D02*
D03*
Y12551D02*
D03*
X5764D02*
D03*
X6764D02*
D03*
X7764D02*
D03*
X8764D02*
D03*
X9764D02*
D03*
X10764D02*
D03*
X11764D02*
D03*
X12764D02*
D03*
X13764D02*
D03*
X14764D02*
D03*
X15764D02*
D03*
X16764D02*
D03*
X17764D02*
D03*
X18764D02*
D03*
D25*
X2453Y23819D02*
D03*
X3453D02*
D03*
X7390D02*
D03*
X6390D02*
D03*
X11705Y24213D02*
D03*
X12705D02*
D03*
X17626Y24409D02*
D03*
X16626D02*
D03*
X21941Y24606D02*
D03*
X22941D02*
D03*
X1575Y5512D02*
D03*
X2575D02*
D03*
D26*
X4984Y20472D02*
D03*
X984D02*
D03*
X6465Y20866D02*
D03*
X10465D02*
D03*
X11811D02*
D03*
X15811D02*
D03*
X21685Y21063D02*
D03*
X17685D02*
D03*
X23228Y19126D02*
D03*
Y15126D02*
D03*
X5543Y9843D02*
D03*
X1543D02*
D03*
D27*
X9646Y2559D02*
D03*
X20079Y9646D02*
D03*
X21260Y3346D02*
D03*
X13764Y3150D02*
D03*
D28*
X24803Y24803D02*
D03*
Y787D02*
D03*
X787D02*
D03*
Y24803D02*
D03*
D29*
X5764Y20630D02*
X5980Y20413D01*
X6652D01*
X6976Y20737D01*
Y23405D02*
X7390Y23819D01*
X6976Y20737D02*
Y23405D01*
X6390Y23819D02*
X6427Y23781D01*
Y20904D02*
X6465Y20866D01*
X6427Y20904D02*
Y23781D01*
X4949Y23819D02*
X5421Y24291D01*
X6917D01*
X7390Y23819D01*
X3453D02*
X4949D01*
X2453D02*
X4984Y21287D01*
Y20472D02*
Y21287D01*
X2362Y23819D02*
X2453D01*
X4900Y20472D02*
X4984D01*
X9241Y10044D02*
Y12749D01*
X11705Y24213D02*
X12374Y24882D01*
X17154D01*
X17626Y24409D01*
X7677Y8480D02*
X8169Y7988D01*
X7646Y2559D02*
X8169Y3083D01*
Y7988D01*
X7677Y3051D02*
Y7480D01*
X4693Y5512D02*
X7646Y2559D01*
X2575Y5512D02*
X4693D01*
X11522Y8433D02*
X11598D01*
X18079Y7677D02*
Y9646D01*
Y4528D02*
Y7677D01*
X10287Y12354D02*
X14963Y7677D01*
X9567Y13028D02*
X9962D01*
X9287Y12749D02*
X9567Y13028D01*
X9962D02*
X10287Y12703D01*
X9287Y10668D02*
Y12749D01*
X10287Y12354D02*
Y12703D01*
X11869Y8161D02*
X12008D01*
X10287Y13037D02*
Y19462D01*
Y13037D02*
X10764Y12560D01*
Y12551D02*
Y12560D01*
X9287Y10668D02*
X11522Y8433D01*
X14963Y7677D02*
X18079D01*
X10028Y5486D02*
X12500Y7958D01*
Y8365D01*
X9764Y5486D02*
X10028D01*
X8646Y4367D02*
X9764Y5486D01*
X12736Y2963D02*
X13140Y2559D01*
X12736Y2963D02*
Y8463D01*
X18079Y4528D02*
X19260Y3346D01*
X20571Y2657D02*
X21260Y3346D01*
X14256Y3642D02*
X14968D01*
X13764Y3150D02*
X14256Y3642D01*
X14968D02*
X15264Y3346D01*
X22621Y2421D02*
X23917Y3717D01*
X15264Y2954D02*
Y3346D01*
Y2954D02*
X15560Y2657D01*
X20571D01*
X15462Y2421D02*
X22621D01*
X14764Y3120D02*
Y3150D01*
Y3120D02*
X15462Y2421D01*
X13173Y2559D02*
X13764Y3150D01*
X9646Y2559D02*
X13140D01*
X13173D01*
X19121Y3346D02*
X19260D01*
X15764Y3150D02*
X18924D01*
X19121Y3346D01*
X21260D02*
X21516Y3602D01*
Y4012D02*
X23425Y5921D01*
X21516Y3602D02*
Y4012D01*
X23169Y6177D02*
Y6555D01*
X20079Y9646D02*
X23169Y6555D01*
Y6177D02*
X23425Y5921D01*
X18962Y13028D02*
X23917Y8073D01*
Y3717D02*
Y8073D01*
X16241Y13028D02*
X18962D01*
X15764Y12551D02*
X16241Y13028D01*
X19803Y18551D02*
X23228Y15126D01*
X18764Y18551D02*
X19803D01*
X22941Y19479D02*
Y24606D01*
X23228Y19126D02*
Y19191D01*
X22941Y19479D02*
X23228Y19191D01*
X19571Y5744D02*
Y9850D01*
X14161Y11154D02*
X18266D01*
X19571Y5744D02*
X20260Y5056D01*
X17806Y10918D02*
X19079Y9646D01*
X13397Y10918D02*
X17806D01*
X11764Y12551D02*
X13397Y10918D01*
X12764Y12551D02*
X14161Y11154D01*
X18266D02*
X19571Y9850D01*
X20260Y3346D02*
Y5056D01*
X11620Y8669D02*
X12196D01*
X9764Y10525D02*
Y12551D01*
X12008Y9161D02*
X12264Y8906D01*
X12294D01*
X12196Y8669D02*
X12500Y8365D01*
X9764Y10525D02*
X11620Y8669D01*
X12294Y8906D02*
X12736Y8463D01*
X11598Y8433D02*
X11869Y8161D01*
X8646Y2559D02*
Y4367D01*
X1665Y5602D02*
Y5964D01*
X5543Y9843D01*
X1575Y5512D02*
X1665Y5602D01*
X1996Y10295D02*
X5731D01*
X1543Y9843D02*
X1996Y10295D01*
X6576Y8581D02*
X7677Y7480D01*
X6576Y8581D02*
Y9450D01*
X5731Y10295D02*
X6576Y9450D01*
X7677Y8480D02*
X9241Y10044D01*
X8962Y13028D02*
X9241Y12749D01*
X8241Y13028D02*
X8962D01*
X7764Y12551D02*
X8241Y13028D01*
X6567Y12074D02*
X8287D01*
X6241Y12399D02*
X6567Y12074D01*
X18995Y9646D02*
X19079D01*
X14764Y12551D02*
Y12560D01*
X17241Y15037D01*
Y18703D01*
X13764Y12551D02*
X15241Y14028D01*
Y18703D01*
X17241D02*
X17685Y19147D01*
Y21063D01*
X15811Y19273D02*
Y20866D01*
X15241Y18703D02*
X15811Y19273D01*
X5764Y18551D02*
Y20630D01*
Y14551D02*
Y18551D01*
X16626Y24409D02*
X19972Y21063D01*
X21685D01*
X21616Y24409D02*
X21813Y24606D01*
X17626Y24409D02*
X21616D01*
X21813Y24606D02*
X21941D01*
X12705Y21760D02*
Y24213D01*
X11811Y20866D02*
X12705Y21760D01*
X4421Y19569D02*
X5287Y18703D01*
Y13703D02*
Y18703D01*
X1887Y19569D02*
X4421D01*
X5287Y13703D02*
X6241Y12749D01*
X7390Y23819D02*
X11311D01*
X11705Y24213D01*
X5764Y14551D02*
X7764Y12551D01*
X8287Y12074D02*
X8764Y12551D01*
X984Y20472D02*
X1887Y19569D01*
X6241Y12399D02*
Y12749D01*
X1543Y15330D02*
X4764Y18551D01*
X1543Y9843D02*
Y15330D01*
X10465Y19640D02*
Y20866D01*
X10287Y19462D02*
X10465Y19640D01*
X7386Y24020D02*
X7390Y24016D01*
X21941Y24606D02*
Y24734D01*
X1447Y5512D02*
X1575D01*
M02*
